<svg xmlns="http://www.w3.org/2000/svg" viewBox="0 0 200 200" fill="none">
  <rect width="200" height="200" fill="#1e1e2e"/>
  <!-- Base -->
  <ellipse cx="45" cy="180" rx="25" ry="8" stroke="#8b5cf6" stroke-width="2" fill="none"/>
  <rect x="30" y="165" width="30" height="15" rx="2" stroke="#8b5cf6" stroke-width="2" fill="none"/>
  <!-- Elegant arm segments -->
  <path d="M45 165 L45 120" stroke="#8b5cf6" stroke-width="8" stroke-linecap="round"/>
  <circle cx="45" cy="120" r="8" stroke="#8b5cf6" stroke-width="2" fill="none"/>
  <path d="M45 120 Q80 100 90 70" stroke="#8b5cf6" stroke-width="6" fill="none" stroke-linecap="round"/>
  <circle cx="90" cy="70" r="7" stroke="#8b5cf6" stroke-width="2" fill="none"/>
  <path d="M90 70 Q110 50 140 55" stroke="#8b5cf6" stroke-width="5" fill="none" stroke-linecap="round"/>
  <circle cx="140" cy="55" r="6" stroke="#8b5cf6" stroke-width="2" fill="none"/>
  <!-- Gripper -->
  <path d="M145 50 L160 40" stroke="#8b5cf6" stroke-width="3" stroke-linecap="round"/>
  <path d="M145 60 L160 70" stroke="#8b5cf6" stroke-width="3" stroke-linecap="round"/>
  <!-- 7-DOF indicator dots -->
  <circle cx="45" cy="165" r="2" fill="#8b5cf6"/>
  <circle cx="45" cy="120" r="2" fill="#8b5cf6"/>
  <circle cx="65" cy="95" r="2" fill="#8b5cf6"/>
  <circle cx="90" cy="70" r="2" fill="#8b5cf6"/>
  <circle cx="115" cy="60" r="2" fill="#8b5cf6"/>
  <circle cx="140" cy="55" r="2" fill="#8b5cf6"/>
</svg>

